<?xml version="1.0" encoding="UTF-8"?>
<svg version="1.1" xmlns="http://www.w3.org/2000/svg" width="512" height="512">
<path d="M0 0 C1.01790619 0.00215515 2.03581238 0.0043103 3.08456421 0.00653076 C17.69363523 0.05620146 32.02575853 0.30709809 46.375 3.3125 C47.34985352 3.51117676 48.32470703 3.70985352 49.32910156 3.91455078 C97.7109774 14.03517194 141.69928269 35.9516877 177.375 70.3125 C178.3640332 71.26068604 178.3640332 71.26068604 179.37304688 72.22802734 C188.86130305 81.37247479 197.6012044 90.66984009 205.375 101.3125 C206.23306152 102.46355017 207.09113451 103.61459177 207.94921875 104.765625 C213.98736829 112.95680614 219.34595521 121.47054105 224.375 130.3125 C224.73948242 130.94430176 225.10396484 131.57610352 225.47949219 132.22705078 C247.08534998 169.97532572 256.85198095 212.74189997 256.6875 255.9375 C256.68534485 256.95540619 256.6831897 257.97331238 256.68096924 259.02206421 C256.63129854 273.63113523 256.38040191 287.96325853 253.375 302.3125 C253.07698486 303.77478027 253.07698486 303.77478027 252.77294922 305.26660156 C242.65232806 353.6484774 220.7358123 397.63678269 186.375 433.3125 C185.74287598 433.97185547 185.11075195 434.63121094 184.45947266 435.31054688 C175.31502521 444.79880305 166.01765991 453.5387044 155.375 461.3125 C154.22394983 462.17056152 153.07290823 463.02863451 151.921875 463.88671875 C143.73224019 469.92427396 135.22961724 475.30707302 126.375 480.3125 C125.66778809 480.7146875 124.96057617 481.116875 124.23193359 481.53125 C101.09654164 494.5566741 75.92537591 503.30551461 49.9375 508.625 C49.21860596 508.77235596 48.49971191 508.91971191 47.7590332 509.0715332 C33.08339502 511.86090125 18.55831162 512.66142619 3.64770508 512.62817383 C0.70811513 512.6250221 -2.2304558 512.64854926 -5.16992188 512.67382812 C-18.54306192 512.71848737 -31.43916711 511.51301542 -44.625 509.3125 C-46.33055054 509.03031616 -46.33055054 509.03031616 -48.07055664 508.74243164 C-91.33802759 500.97044532 -132.38793216 480.98345309 -165.625 452.3125 C-166.37007813 451.67828125 -167.11515625 451.0440625 -167.8828125 450.390625 C-181.38779833 438.57948485 -194.05918743 425.82889772 -204.625 411.3125 C-205.48149066 410.16255169 -206.33826433 409.01281411 -207.1953125 407.86328125 C-213.23534209 399.67315742 -218.61867614 391.16870382 -223.625 382.3125 C-224.0271875 381.60528809 -224.429375 380.89807617 -224.84375 380.16943359 C-237.8691741 357.03404164 -246.61801461 331.86287591 -251.9375 305.875 C-252.08485596 305.15610596 -252.23221191 304.43721191 -252.3840332 303.6965332 C-255.35789088 288.05024391 -255.99800362 272.57681954 -255.9375 256.6875 C-255.93534485 255.66959381 -255.9331897 254.65168762 -255.93096924 253.60293579 C-255.88129854 238.99386477 -255.63040191 224.66174147 -252.625 210.3125 C-252.42632324 209.33764648 -252.22764648 208.36279297 -252.02294922 207.35839844 C-241.90232806 158.9765226 -219.9858123 114.98821731 -185.625 79.3125 C-184.99287598 78.65314453 -184.36075195 77.99378906 -183.70947266 77.31445312 C-174.56502521 67.82619695 -165.26765991 59.0862956 -154.625 51.3125 C-153.47394983 50.45443848 -152.32290823 49.59636549 -151.171875 48.73828125 C-142.98224019 42.70072604 -134.47961724 37.31792698 -125.625 32.3125 C-124.91778809 31.9103125 -124.21057617 31.508125 -123.48193359 31.09375 C-100.34654164 18.0683259 -75.17537591 9.31948539 -49.1875 4 C-48.46860596 3.85264404 -47.74971191 3.70528809 -47.0090332 3.5534668 C-31.36274391 0.57960912 -15.88931954 -0.06050362 0 0 Z " fill="#FEFEFE" transform="translate(255.625,-0.3125)"/>
<path d="M0 0 C18.57356357 10.8324843 25.35439975 32.36327397 33.375 51.125 C34.38560951 53.47272583 35.39676642 55.8202161 36.40844727 58.16748047 C44.85954976 77.80486369 53.20976759 97.48634439 61.47169495 117.20407104 C63.24059183 121.42520718 65.02027021 125.64126735 66.81884766 129.84985352 C67.18542984 130.71085663 67.55201202 131.57185974 67.92970276 132.45895386 C68.62408597 134.08890351 69.32142495 135.71759852 70.02232361 137.34475708 C75.97225554 151.34155559 76.94446426 168.17867382 71.5625 182.5625 C67.61406205 191.54011367 62.5232531 198.68954018 55.5625 205.5625 C55.02238281 206.12453125 54.48226563 206.6865625 53.92578125 207.265625 C40.08927919 220.50963201 21.87210721 222.01293328 3.82519531 221.95068359 C1.83808098 221.95475442 -0.14903109 221.96009916 -2.13613892 221.96661377 C-7.50828114 221.98023586 -12.8802496 221.97500889 -18.25239468 221.96547651 C-23.89346705 221.95784915 -29.53452515 221.96493444 -35.17559814 221.96963501 C-44.65094658 221.97508541 -54.12622475 221.96792159 -63.6015625 221.95361328 C-74.525475 221.93730705 -85.44921931 221.94256348 -96.3731277 221.9590925 C-105.77904081 221.97275032 -115.18490358 221.97460553 -124.59082341 221.96677649 C-130.19650985 221.9621211 -135.80211752 221.9614156 -141.40779877 221.97138596 C-146.68401749 221.98011537 -151.96002171 221.97392557 -157.2362175 221.95670319 C-159.16176626 221.95276923 -161.08733338 221.95381867 -163.0128746 221.96049118 C-183.56456365 222.02508713 -201.78173817 219.62293038 -217.3737793 204.89697266 C-229.31364701 192.94694682 -234.77531173 178.05221196 -234.875 161.4375 C-234.90787109 160.49390625 -234.94074219 159.5503125 -234.97460938 158.578125 C-235.09669804 142.10725483 -225.548175 127.18833751 -218.33642578 112.89379883 C-216.56390324 109.3777835 -214.80650039 105.85450902 -213.05078125 102.33007812 C-211.91234834 100.05944939 -210.77305436 97.78925212 -209.6328125 95.51953125 C-209.11590851 94.48278763 -208.59900452 93.44604401 -208.06643677 92.37788391 C-200.31384982 77.06786887 -192.4537991 64.67604608 -175.9375 58.1875 C-163.8936915 56.03681991 -153.59346705 58.91253283 -143.4375 65.5625 C-138.86273654 68.78765862 -135.48953537 72.63957204 -132 77 C-125.49577079 85.10002148 -118.63237102 92.17264987 -107.99609375 93.9765625 C-99.92981156 94.45624751 -93.56352137 91.28077945 -87.5625 86.0625 C-84.03488334 81.91236276 -80.91916938 77.90344331 -78.29296875 73.1171875 C-77.70596191 72.05322754 -77.11895508 70.98926758 -76.51416016 69.89306641 C-75.8907373 68.75272949 -75.26731445 67.61239258 -74.625 66.4375 C-73.96460408 65.23975488 -73.30362372 64.04233183 -72.64208984 62.84521484 C-69.88856333 57.85844881 -67.14776859 52.8647602 -64.41748047 47.86523438 C-41.31771611 5.57310033 -41.31771611 5.57310033 -25.328125 -1.6171875 C-16.8235772 -4.03064026 -8.0461757 -3.67883895 0 0 Z " fill="#54A6B2" transform="translate(335.4375,189.4375)"/>
<path d="M0 0 C10.08500951 7.90885609 18.52380848 18.90833512 20.42578125 31.90234375 C21.49582263 43.47948359 20.86904045 53.40258324 15.42578125 63.90234375 C14.9565625 64.81628906 14.48734375 65.73023438 14.00390625 66.671875 C7.02145467 79.19148576 -3.99661818 86.63196938 -17.57421875 90.90234375 C-32.22331687 93.86750972 -45.32818993 91.52795938 -57.94921875 83.65625 C-69.89889034 75.67202002 -76.95481428 64.0194374 -80.06640625 50.03515625 C-82.5916762 34.45618315 -78.18095867 21.61698027 -69.20703125 8.9765625 C-52.76859593 -11.96618984 -21.28651966 -14.91633155 0 0 Z " fill="#63AF7F" transform="translate(210.57421875,110.09765625)"/>
</svg>
